<?xml version="1.0" encoding="UTF-8"?>
<!-- Created with Inkscape (http://www.inkscape.org/) -->
<svg width="127mm" height="127mm" version="1.1" viewBox="0 0 127 127" xmlns="http://www.w3.org/2000/svg">
 <g transform="translate(-26.464 -65.386)">
  <g transform="matrix(1.0068 0 0 1.0068 -.44574 -.9758)" stroke="#00222b" stroke-linecap="round" stroke-linejoin="round">
   <g transform="matrix(12.689 0 0 12.689 -946.22 -1337.1)" fill="#00222b" stroke-width=".52917" aria-label="?">
    <path d="m81.947 113c-0.0063 0.0528-0.01457 0.10411-0.02481 0.15402-0.02934 0.14297-0.11494 0.36565-0.18683 0.49272-0.01859 0.0329-0.03828 0.0653-0.05905 0.0973-0.07952 0.12247-0.23603 0.30171-0.34354 0.40054-0.08237 0.0757-0.17907 0.15649-0.29008 0.24231-0.11557 0.0893-0.30829 0.2272-0.42518 0.31488-0.13755 0.10318-0.25265 0.19331-0.3453 0.2704-0.11224 0.0934-0.28003 0.26209-0.36322 0.38206-0.07609 0.10972-0.17505 0.31664-0.20402 0.45952-0.02819 0.139-0.14539 0.25538-0.29152 0.25538h-0.37517c-0.14612 0-0.26338-0.11901-0.24184-0.26345 0.0066-0.0443 0.01459-0.0875 0.02395-0.12978 0.03159-0.14251 0.1208-0.36361 0.19373-0.49012 0.01502-0.0261 0.03064-0.0518 0.04684-0.0771 0.07869-0.123 0.23457-0.30273 0.34144-0.40227 0.08503-0.0792 0.18627-0.16548 0.30372-0.25883 0.11436-0.0909 0.30562-0.23073 0.42206-0.31901 0.12706-0.0963 0.23349-0.18124 0.3193-0.25472 0.11086-0.0949 0.27431-0.26797 0.35584-0.38907 0.07142-0.10608 0.16772-0.30929 0.19518-0.45243 0.02664-0.13889 0.02714-0.37503-0.0022-0.51792-0.03299-0.1604-0.09814-0.30029-0.19547-0.41967-0.09208-0.11296-0.28736-0.25371-0.41936-0.31581-0.17702-0.0833-0.3837-0.13588-0.62002-0.15777-0.14545-0.0135-0.38317-0.0138-0.52827 3e-3 -0.24759 0.0283-0.4668 0.0981-0.65761 0.2094-0.12607 0.0735-0.30732 0.22974-0.39798 0.34408-0.13004 0.164-0.22257 0.3564-0.27759 0.5772-0.03531 0.14169-0.16429 0.25265-0.3101 0.24314l-0.4228-0.0276c-0.14582-0.01-0.24987-0.13509-0.2189-0.27785 0.09898-0.4563 0.29245-0.83223 0.58041-1.1278 0.1019-0.1046 0.28807-0.25276 0.41176-0.33042 0.36147-0.22696 0.78885-0.3573 1.2821-0.39104 0.14576-0.01 0.38295-0.01 0.52884-2e-3 0.52883 0.0285 0.97172 0.14476 1.3287 0.34876 0.12677 0.0725 0.31763 0.21514 0.41992 0.3193 0.25245 0.25707 0.40149 0.57795 0.44714 0.96265 0.01721 0.14505 0.01511 0.26404 0.01511 0.26403zm-3.2147 4.6494v-0.50953a0.26458 0.26458 135 0 1 0.26458-0.26458h0.47852a0.26458 0.26458 45 0 1 0.26458 0.26458v0.50953a0.26458 0.26458 135 0 1-0.26458 0.26458h-0.47852a0.26458 0.26458 45 0 1-0.26458-0.26458z" fill="#00222b" stroke="#00222b" stroke-linecap="round" stroke-linejoin="round"/>
   </g>
   <path d="m110.54 121.65c-15.906 0.69867-28.676 11.822-29.586 25.728-0.05725 0.87472-0.05744 2.298-4.36e-4 3.1728 0.90645 13.909 13.677 25.036 29.586 25.735 0.87584 0.0385 2.2982 0.0355 3.1738-7e-3 0.64157-0.0314 1.5809 0.49897 2.1578 1.1588 5.8347 6.6733 16.383 10.013 28.068 6.5068 0.8397-0.25195 0.81609-0.65539-3e-3 -0.96625-4.297-1.6304-8.5706-5.6054-11.315-11.464-0.37184-0.79388-0.0544-1.868 0.62877-2.4173 5.9736-4.8037 9.5794-11.458 10.054-18.546 0.0585-0.87462 0.0589-2.2979 2e-3 -3.1726-0.91024-13.909-13.684-25.033-29.592-25.728-0.87585-0.0383-2.2982-0.0382-3.174 2.9e-4z" fill="#acf" stroke-width="13.429"/>
  </g>
 </g>
</svg>
